<svg width="53" height="25" viewBox="0 0 53 25" fill="none" xmlns="http://www.w3.org/2000/svg">
  <path d="M21.6457 0.337214L13.1317 16.9199L4.74602 0.471622L4.68188 0.337214H0L13.1478 24.934L26.2634 0.337214H21.6457Z" fill="#0C0C0B"/>
  <path d="M40.277 0.00119265C37.0359 -0.0448085 33.9066 1.2415 31.5597 3.5844C29.2129 5.9273 27.8354 9.14033 27.7225 12.5348C27.9203 15.8808 29.3283 19.0219 31.6595 21.318C33.9907 23.6141 37.0696 24.8924 40.269 24.8924C43.4684 24.8924 46.5474 23.6141 48.8785 21.318C51.2097 19.0219 52.6177 15.8808 52.8155 12.5348C52.7026 9.14328 51.3274 5.93277 48.984 3.59034C46.6407 1.2479 43.5154 -0.0403805 40.277 0.00119265ZM40.277 21.0697C39.2078 21.0701 38.1494 20.8463 37.164 20.4116C36.1786 19.9768 35.2861 19.34 34.5391 18.5384C33.7921 17.7369 33.2056 16.7869 32.8142 15.7443C32.4228 14.7017 32.2344 13.5876 32.2601 12.4676C32.2601 10.2396 33.1047 8.10292 34.6082 6.52751C36.1117 4.95211 38.1508 4.06705 40.277 4.06705C42.4032 4.06705 44.4424 4.95211 45.9459 6.52751C47.4493 8.10292 48.294 10.2396 48.294 12.4676C48.3196 13.5876 48.1312 14.7017 47.7398 15.7443C47.3484 16.7869 46.762 17.7369 46.015 18.5384C45.268 19.34 44.3755 19.9768 43.3901 20.4116C42.4047 20.8463 41.3462 21.0701 40.277 21.0697Z" fill="#0C0C0B"/>
  <path d="M0 0.337214L13.1478 24.934L26.2634 0.337214H0Z" fill="#0C0C0B"/>
  <path d="M40.277 24.9004C47.2107 24.9004 52.8315 19.3265 52.8315 12.4508C52.8315 5.57507 47.2107 0.00119265 40.277 0.00119265C33.3434 0.00119265 27.7225 5.57507 27.7225 12.4508C27.7225 19.3265 33.3434 24.9004 40.277 24.9004Z" fill="#0C0C0B"/>
</svg>
